# xmcd CD database file
#
# Track frame offsets:
#	150
#	21034
#	42870
#	65082
#
# Disc length: 1153 seconds
#
# Revision: 0
# Processed by: cddbd v1.5.1PL0 Copyright (c) Steve Scherf et al.
# Submitted via: CDex 1.51
#
DISCID=2e047f04
DTITLE=大塚愛 - 金魚花火
DYEAR=2004
DGENRE=JPop
TTITLE0=金魚花火
TTITLE1=ココ夏バケーション
TTITLE2=金魚花火（Instrumental）
TTITLE3=ココ夏バケーション（Instrumental）
EXTD=YEAR: 2004
EXTT0=
EXTT1=
EXTT2=
EXTT3=
PLAYORDER=
